<?xml version="1.0"?>
<svg xmlns="http://www.w3.org/2000/svg" xmlns:xlink="http://www.w3.org/1999/xlink" xmlns:svgjs="http://svgjs.com/svgjs" version="1.1" width="512" height="512" x="0" y="0" viewBox="0 0 24 24" style="enable-background:new 0 0 512 512" xml:space="preserve" class=""><g><path xmlns="http://www.w3.org/2000/svg" d="m22.25 23.25h-7.5c-.552 0-1-.448-1-1v-20.5c0-.552.448-1 1-1h7.5c.552 0 1 .448 1 1v20.5c0 .552-.448 1-1 1z" fill="#a96da3" data-original="#000000" style="" class=""/><path xmlns="http://www.w3.org/2000/svg" d="m23 24h-9c-.552 0-1-.448-1-1v-22c0-.552.448-1 1-1h9c.552 0 1 .448 1 1v22c0 .552-.448 1-1 1zm-7.5-22.5c-.552 0-1 .448-1 1v19c0 .552.448 1 1 1h6c.552 0 1-.448 1-1v-19c0-.552-.448-1-1-1z" fill="#a96da3" data-original="#000000" style="" class=""/><path xmlns="http://www.w3.org/2000/svg" d="m9.25 23.25h-7.5c-.552 0-1-.448-1-1v-20.5c0-.552.448-1 1-1h7.5c.552 0 1 .448 1 1v20.5c0 .552-.448 1-1 1z" fill="#a96da3" data-original="#000000" style="" class=""/><path xmlns="http://www.w3.org/2000/svg" d="m10 24h-9c-.552 0-1-.448-1-1v-22c0-.552.448-1 1-1h9c.552 0 1 .448 1 1v22c0 .552-.448 1-1 1zm-7.5-22.5c-.552 0-1 .448-1 1v19c0 .552.448 1 1 1h6c.552 0 1-.448 1-1v-19c0-.552-.448-1-1-1z" fill="#a96da3" data-original="#000000" style="" class=""/></g></svg>
