<svg id="Capa_1" enable-background="new 0 0 512 512" height="512" viewBox="0 0 512 512" width="512" xmlns="http://www.w3.org/2000/svg"><g><g><g><g><path d="m187.96 7.664h121.416v511.337h-121.416z" fill="#ffaf40" transform="matrix(.707 .707 -.707 .707 259.037 -98.707)"/><path d="m311.7 286.15c-38.3 30.89-87.03 49.39-140.08 49.39-24.4 0-47.88-3.91-69.86-11.15l-76.8 76.8 85.85 85.85z" fill="#ff993a"/><path d="m211.27 386.58c-.88.01-1.76.02-2.64.02-46.89 0-89.53-18.13-121.3-47.78l-62.37 62.37 85.85 85.85z" fill="#f97c15"/><path d="m-7.001 248.301h511.337v30.062h-511.337z" fill="#f97c15" transform="matrix(.707 -.707 .707 .707 -113.371 252.963)"/><path d="m154.91 378.35-76.39 76.4h-.01l-21.25-21.26 67.73-67.74c9.49 5.07 19.5 9.3 29.92 12.6z" fill="#e86300"/><path d="m113.204 484.65-16.193 16.193c-14.877 14.877-38.997 14.877-53.874 0l-31.98-31.98c-14.877-14.877-14.877-38.997 0-53.874l16.193-16.193z" fill="#fc709b"/><path d="m113.2 484.65-16.19 16.19c-14.88 14.88-39 14.88-53.87 0l-31.98-31.98c-4.29-4.29-7.34-9.33-9.15-14.71 15.73 7.45 33.31 11.61 51.86 11.61 12.26 0 24.09-1.82 35.24-5.2z" fill="#fe255f"/><path d="m56.487 364.308h60.994v121.416h-60.994z" fill="#f9f8f2" transform="matrix(.707 -.707 .707 .707 -275.054 185.992)"/><path d="m151.48 446.38-43.13 43.13-26.9-26.9c21.39-4.97 40.62-15.6 56.02-30.24z" fill="#e8e4d8"/><g fill="#d8d4c9"><path d="m133.421 464.158-85.578-85.578c-2.267-2.267-5.943-2.267-8.21 0l-6.029 6.029c-2.267 2.267-2.267 5.943 0 8.21l85.578 85.578c2.267 2.267 5.943 2.267 8.21 0l6.029-6.029c2.267-2.268 2.267-5.943 0-8.21z"/><path d="m160.651 436.927-85.578-85.578c-2.267-2.267-5.943-2.267-8.21 0l-6.029 6.029c-2.267 2.267-2.267 5.943 0 8.21l85.578 85.578c2.267 2.267 5.943 2.267 8.21 0l6.029-6.029c2.267-2.267 2.267-5.943 0-8.21z"/></g></g><path d="m386.526 39.62s6.796 28.015 32.317 53.537 53.536 32.317 53.536 32.317l38.719-106.133c4.19-11.486-6.954-22.63-18.44-18.44z" fill="#ffdbcf"/><path d="m511.1 19.34-38.72 106.13s-28.02-6.79-53.54-32.31c-3.02-3.02-5.78-6.08-8.3-9.12h.27c47.49 0 86.31-37.06 89.1-83.85 8.33 1.36 14.47 10.15 11.19 19.15z" fill="#ffccb7"/><path d="m503.043 41.418 8.054-22.076c4.195-11.485-6.954-22.634-18.439-18.439l-22.076 8.054c.345 8.193 3.637 16.296 9.901 22.56s14.367 9.556 22.56 9.901z" fill="#706c64"/></g><path d="m171.299 254.851 135.942-135.942c8.918-8.918 23.377-8.917 32.295.001 8.918 8.919 8.917 23.379-.001 32.297l-135.939 135.943c-8.85 8.85-23.202 8.824-32.023-.054-.107-.108-.215-.216-.322-.324-8.781-8.838-8.762-23.111.048-31.921z" fill="#ffc751"/><path d="m219.285 206.865 60.436-60.436c8.793-8.793 23.045-8.843 31.881-.093.118.117.236.233.354.35 8.897 8.811 8.917 23.183.064 32.037l-60.437 60.438c-8.824 8.824-23.125 8.828-31.957.012-.108-.108-.215-.215-.323-.323-8.844-8.825-8.854-23.149-.018-31.985z" fill="#ffe059"/><path d="m119.177 449.914-32.661-32.661c-3.889-3.889-10.189-3.887-14.083-.003-.048.047-.095.095-.143.142-3.9 3.891-3.909 10.203-.013 14.099l32.661 32.661c3.893 3.893 10.204 3.893 14.096 0l.142-.142c3.894-3.892 3.894-10.203.001-14.096z" fill="#e8e4d8"/><path d="m85.817 430.694c-.047.048-.095.095-.142.143-3.87 3.894-3.872 10.18.01 14.062l9.822 9.822c3.88 3.88 10.163 3.88 14.058.014.049-.048.097-.096.146-.145 3.914-3.885 3.935-10.207.035-14.107l-9.822-9.822c-3.9-3.9-10.22-3.879-14.107.033z" fill="#f1eee0"/><path d="m146.408 422.684-32.678-32.678c-3.898-3.898-10.22-3.891-14.11.014-.047.048-.095.095-.142.143-3.879 3.895-3.873 10.195.014 14.082l32.678 32.678c3.893 3.893 10.204 3.893 14.096 0l.142-.142c3.892-3.894 3.892-10.205 0-14.097z" fill="#e8e4d8"/><path d="m130.554 406.83-5.499-5.499c-3.902-3.902-10.227-3.878-14.113.04-.047.048-.095.095-.142.143-3.864 3.895-3.863 10.176.017 14.056l5.499 5.499c3.886 3.886 10.187 3.886 14.073 0l.165-.165c3.886-3.887 3.886-10.188 0-14.074z" fill="#f1eee0"/><path d="m511.1 19.34-8.06 22.08c-4.81-.21-9.59-1.42-13.98-3.67 6.21-11.26 10.04-24 10.85-37.56 8.33 1.36 14.47 10.15 11.19 19.15z" fill="#595751"/></g><path d="m436.437 59.333 18.776-6.848c9.193-3.353 13.805-13.581 10.322-22.726-.058-.153-.117-.306-.175-.459-3.408-8.968-13.35-13.569-22.362-10.281l-18.797 6.858c-9.693 3.536-14.277 14.596-9.964 23.969.05.108.1.216.149.325 3.834 8.328 13.437 12.304 22.051 9.162z" fill="#ffece6"/></g></svg>