<svg id="Capa_1" enable-background="new 0 0 512.002 512.002" height="512" viewBox="0 0 512.002 512.002" width="512" xmlns="http://www.w3.org/2000/svg"><g><g><g><path d="m360.132 264.04v237.789c0 7.41-7.68 12.33-14.41 9.23l-81.219-37.43c-5.39-2.49-11.61-2.49-17 0l-81.219 37.43c-6.73 3.1-14.41-1.82-14.41-9.23v-237.789z" fill="#fe255f"/><path d="m360.132 264.04v68.1c-28.82 22.2-64.94 35.4-104.129 35.4s-75.31-13.2-104.129-35.4v-68.1z" fill="#e01152"/><path d="m360.132 264.04v237.789c0 7.41-7.68 12.33-14.41 9.23l-81.219-37.43c-5.39-2.49-11.61-2.49-17 0l-81.219 37.43c-6.73 3.1-14.41-1.82-14.41-9.23v-28.24c94.259-7.9 168.289-86.899 168.289-183.189 0-8.95-.64-17.75-1.88-26.36z" fill="#e01152"/><path d="m360.132 344.579v157.249c0 7.41-7.68 12.33-14.41 9.23l-81.219-37.43c0 .001 77.126-16.233 95.629-129.049z" fill="#c40047"/><g><path d="m203.823 264.04v229.719l-21.04 9.689v-239.408z" fill="#f1eee0"/><path d="m182.783 264.04h21.04v95.379c-7.24-2.32-14.27-5.11-21.04-8.34z" fill="#d8d4c9"/><path d="m329.222 264.04v239.408l-21.04-9.689v-229.719z" fill="#d8d4c9"/><g fill="#b5b1a4"><path d="m329.222 425.259v78.189l-21.04-9.69v-44.78c7.04-6.269 14.24-14.059 21.04-23.719z"/><path d="m329.222 264.04v87.039c-6.77 3.23-13.8 6.02-21.04 8.34v-95.379z"/></g></g><g><circle cx="256.003" cy="170.808" fill="#ffe059" r="170.806"/><circle cx="256.003" cy="170.808" fill="#ff993a" r="131.66"/><circle cx="256.003" cy="170.808" fill="#ffc751" r="113.207"/><path d="m369.213 170.81c0 62.52-50.69 113.21-113.21 113.21-59.2 0-107.8-45.45-112.78-103.37 15.69 29.35 46.64 49.32 82.25 49.32 51.49 0 93.23-41.74 93.23-93.23 0-31.97-16.1-60.19-40.63-76.98 51.96 10.26 91.14 56.08 91.14 111.05z" fill="#ffaf40"/></g></g><path d="m251.322 227.839-33.31 14.112c-8.328 3.528-17.418-3.076-16.636-12.087l3.128-36.04c.281-3.237-.763-6.45-2.893-8.904l-23.714-27.319c-5.929-6.83-2.457-17.516 6.354-19.557l35.243-8.162c3.166-.733 5.899-2.719 7.574-5.503l18.653-30.996c4.664-7.75 15.899-7.75 20.563 0l18.653 30.996c1.676 2.784 4.408 4.77 7.574 5.503l35.243 8.162c8.812 2.041 12.284 12.726 6.354 19.557l-23.714 27.319c-2.13 2.454-3.174 5.667-2.893 8.904l3.128 36.04c.782 9.011-8.308 15.615-16.636 12.087l-33.31-14.112c-2.991-1.267-6.369-1.267-9.361 0z" fill="#fff370"/><path d="m203.823 461.449v32.31l-21.04 9.69v-35.14c7.2-1.87 14.22-4.17 21.04-6.86z" fill="#d8d4c9"/></g><g><path d="m148.698 277.71c7.986-6.655 9.269-18.423 2.927-26.659-17.106-22.214-27.283-50.038-27.283-80.242 0-72.72 58.95-131.66 131.66-131.66 16.392 0 32.081 3 46.555 8.476 8.78 3.322 18.662-.273 23.427-8.361.066-.113.133-.225.199-.338 6.091-10.335 1.419-23.705-9.803-27.946-18.771-7.096-39.121-10.98-60.377-10.98-94.33 0-170.81 76.47-170.81 170.81 0 39.145 13.177 75.208 35.33 104.012 6.738 8.761 19.383 10.216 27.874 3.14z" fill="#fff370"/></g><g><path d="m108.516 156.833h.004c9.106 0 17.059-6.268 19.065-15.15 11.423-50.58 51.955-90.118 103.066-100.089 9.176-1.79 15.785-9.85 15.785-19.199 0-12.284-11.193-21.585-23.25-19.238-66.367 12.917-119.001 64.26-133.803 129.939-2.747 12.182 6.646 23.737 19.133 23.737z" fill="#fff7c7"/></g><g><path d="m159.294 81.506c12.311-13.322 27.338-24.096 44.205-31.441 8.437-3.674 13.016-12.887 11.026-21.872-.03-.135-.06-.27-.09-.405-2.639-11.969-15.559-18.449-26.788-13.539-21.714 9.496-41.071 23.378-56.954 40.525-8.443 9.115-6.32 23.683 4.405 29.956.113.066.226.132.339.198 7.778 4.552 17.742 3.196 23.857-3.422z" fill="#fffdf3"/></g><path d="m310.393 184.92c-2.13 2.45-3.17 5.67-2.89 8.9l3.13 36.04c.78 9.02-8.31 15.62-16.64 12.09l-33.31-14.11c-2.99-1.27-6.37-1.27-9.36 0l-33.31 14.11c-8.33 3.53-17.42-3.07-16.64-12.09l.83-9.58c49.8-.62 90.13-40.52 91.44-90.14l34.11 7.9c8.81 2.05 12.29 12.73 6.36 19.56z" fill="#ffe059"/><g><path d="m364.717 245.056c-19.041 27.836-48.485 47.988-82.74 54.843-9.266 1.854-16.34 9.73-16.406 19.18-.086 12.354 11.146 21.735 23.25 19.379 44.807-8.721 83.327-34.972 108.187-71.314 5.329-7.79 4.393-18.262-2.281-24.935-8.68-8.682-23.079-7.287-30.01 2.847z" fill="#fff370"/></g></g></svg>