<svg id="Capa_1" enable-background="new 0 0 512 512" height="512" viewBox="0 0 512 512" width="512" xmlns="http://www.w3.org/2000/svg"><g><g><g><path d="m428.886 512h-323.113c-19.385 0-35.099-15.714-35.099-35.099v-441.802c-.001-19.385 15.714-35.099 35.099-35.099h323.114c19.385 0 35.099 15.714 35.099 35.099v441.802c-.001 19.385-15.715 35.099-35.1 35.099z" fill="#ffaf40"/><path d="m463.989 217.186v259.71c0 19.387-15.713 35.099-35.099 35.099h-323.123c-19.375 0-35.099-15.713-35.099-35.099v-27.986c31.671 11.595 65.881 17.924 101.565 17.924 147.557 0 269.83-108.234 291.756-249.648z" fill="#ff993a"/><path d="m463.989 319.944v156.952c0 19.387-15.713 35.099-35.099 35.099h-141.052c90.275-24.019 159.841-98.874 176.151-192.051z" fill="#f97c15"/><g><g><path d="m395.593 479.507h-296.333v-437.288c0-8.273 6.707-14.98 14.98-14.98h301.327c8.273 0 14.98 6.707 14.98 14.98v402.334c0 19.305-15.649 34.954-34.954 34.954z" fill="#e8e4d8"/><path d="m335.263 38.917h-15.926c-.399-8.394-7.311-15.083-15.804-15.083h-96.791c-8.493 0-15.405 6.689-15.804 15.083h-15.926c-5.25 0-9.505 4.255-9.505 9.505v32.316c0 21.096 17.163 38.259 38.259 38.259h102.744c21.096 0 38.259-17.162 38.259-38.259v-32.315c-.001-5.25-4.256-9.506-9.506-9.506zm-9.506 41.821c0 10.613-8.634 19.248-19.248 19.248h-102.743c-10.614 0-19.248-8.635-19.248-19.248v-22.81h6.382v2.854c0 8.75 7.093 15.842 15.842 15.842h96.791c8.749 0 15.842-7.093 15.842-15.842v-2.854h6.382z" fill="#d8d4c9"/><path d="m430.549 42.22v402.334c0 19.301-15.653 34.954-34.954 34.954h-296.332v-95.542c14.911 2.729 30.281 4.152 45.978 4.152 140.256 0 253.951-113.694 253.951-253.942 0-38.204-8.436-74.439-23.541-106.937h39.918c8.267 0 14.98 6.704 14.98 14.981z" fill="#d8d4c9"/><path d="m430.549 251.147v193.407c0 19.301-15.653 34.954-34.954 34.954h-181.101c113.403-20.45 201.781-112.927 216.055-228.361z" fill="#b5b1a4"/><path d="m82.294 410.943h288.392c-18.939 0-34.282 15.344-34.282 34.282 0 18.418 14.522 33.443 32.745 34.247l-286.855.035c-18.93 0-34.282-15.352-34.282-34.282-.001-18.939 15.352-34.282 34.282-34.282z" fill="#f1eee0"/><path d="m372.24 410.943v.035c-.512-.026-1.034-.035-1.555-.035z" fill="#f1eee0"/><g><path d="m231.016 410.94h-123.351c-13.322 0-24.121 10.799-24.121 24.121 0 13.322 10.799 24.121 24.121 24.121h123.351c13.322 0 24.121-10.799 24.121-24.121.001-13.321-10.799-24.121-24.121-24.121z" fill="#f9f8f2"/><path d="m186.233 410.94h-33.785c-13.322 0-24.121 10.799-24.121 24.121 0 13.322 10.799 24.121 24.121 24.121h33.785c13.322 0 24.121-10.799 24.121-24.121 0-13.321-10.799-24.121-24.121-24.121z" fill="#fff"/></g><path d="m372.231 479.472c-.512.026-1.025.035-1.546.035-.512 0-1.025-.009-1.537-.035z" fill="#8f8b81"/></g><path d="m125.772 259.002c-14.642 0-26.512-11.87-26.512-26.512v-120.778c0-14.642 11.87-26.512 26.512-26.512 14.642 0 26.512 11.87 26.512 26.512v120.778c.001 14.642-11.869 26.512-26.512 26.512z" fill="#f1eee0"/><path d="m152.285 177.298v-34.177c0-14.642-11.87-26.512-26.512-26.512-14.642 0-26.512 11.87-26.512 26.512v34.177c0 14.642 11.87 26.512 26.512 26.512 14.642 0 26.512-11.87 26.512-26.512z" fill="#f9f8f2"/><path d="m336.402 445.224c0-18.934 15.349-34.283 34.283-34.283 14.791 0 27.395 9.367 32.202 22.493 2.098 5.729-2.228 11.79-8.329 11.79z" fill="#8f8b81"/></g><g><path d="m306.51 103.902h-102.744c-21.096 0-38.259-17.162-38.259-38.259v-32.315c0-5.25 4.256-9.505 9.505-9.505h160.251c5.25 0 9.505 4.256 9.505 9.505v32.316c0 21.095-17.163 38.258-38.258 38.258zm-121.992-61.069v22.81c0 10.613 8.634 19.248 19.248 19.248h102.744c10.614 0 19.248-8.635 19.248-19.248v-22.81z" fill="#48acff"/></g><g><path d="m325.757 44.639v17.271c0 5.25 4.256 9.505 9.505 9.505 5.25 0 9.505-4.256 9.505-9.505v-17.271c0-5.25-4.256-9.505-9.505-9.505-5.249 0-9.505 4.256-9.505 9.505z" fill="#7cbaf7"/></g><g><path d="m257.978 94.396c0-5.25-4.256-9.505-9.505-9.505h-44.707c-8.113 0-15.054-5.049-17.876-12.168-1.466-3.7-4.92-6.226-8.9-6.226h-.075c-6.614 0-11.245 6.625-8.878 12.801 5.507 14.373 19.442 24.604 35.729 24.604h44.707c5.249 0 9.505-4.256 9.505-9.506z" fill="#7cbaf7"/></g><g><path d="m236.362 94.03c-.16-5.089-4.314-9.139-9.405-9.139h-23.191c-3.635 0-7.031-1.017-9.927-2.778-3.303-2.009-7.541-1.603-10.566.805l-.149.118c-5.081 4.044-4.675 11.971.876 15.342 5.769 3.504 12.534 5.524 19.765 5.524h23.197c5.304 0 9.573-4.381 9.406-9.682-.002-.063-.004-.127-.006-.19z" fill="#a9cffc"/></g><path d="m303.533 61.529h-96.791c-8.749 0-15.842-7.093-15.842-15.842v-21.106c0-8.749 7.093-15.842 15.842-15.842h96.791c8.749 0 15.842 7.093 15.842 15.842v21.105c0 8.75-7.093 15.843-15.842 15.843z" fill="#fe255f"/><path d="m319.38 24.58v21.11c0 8.75-7.1 15.84-15.85 15.84h-45.43c24.38 0 44.13-19.76 44.13-44.14 0-2.96-.29-5.85-.85-8.65h2.15c8.75 0 15.85 7.09 15.85 15.84z" fill="#e01152"/><path d="m206.111 26.323c0 9.711 7.872 17.584 17.584 17.584h31.841c9.711 0 17.584-7.872 17.584-17.584 0-9.711-7.872-17.584-17.584-17.584h-31.841c-9.712 0-17.584 7.873-17.584 17.584z" fill="#fc709b"/></g><path d="m447.269 198.813c-9.234 0-16.72-7.486-16.72-16.72v-108.382c0-9.234 7.486-16.72 16.72-16.72 9.234 0 16.72 7.486 16.72 16.72v108.382c0 9.234-7.486 16.72-16.72 16.72z" fill="#ffc751"/><path d="m463.989 136.838v-41.219c0-9.234-7.486-16.72-16.72-16.72-9.234 0-16.72 7.486-16.72 16.72v41.218c0 9.234 7.486 16.72 16.72 16.72 9.234 0 16.72-7.486 16.72-16.719z" fill="#ffe059"/></g><g><g><g><g><g><path d="m354.289 348.239h-185.276c-7.161 0-12.966-5.805-12.966-12.966 0-7.161 5.805-12.966 12.966-12.966h185.276c7.161 0 12.966 5.805 12.966 12.966.001 7.161-5.804 12.966-12.966 12.966z" fill="#8f8b81"/></g><g><path d="m297.419 322.307h-99.249c-7.161 0-12.966 5.805-12.966 12.966 0 7.161 5.805 12.966 12.966 12.966h99.249c7.161 0 12.966-5.805 12.966-12.966 0-7.161-5.805-12.966-12.966-12.966z" fill="#b5b1a4"/><path d="m258.255 322.307h-32.462c-7.161 0-12.966 5.805-12.966 12.966 0 7.161 5.805 12.966 12.966 12.966h32.462c7.161 0 12.966-5.805 12.966-12.966 0-7.161-5.805-12.966-12.966-12.966z" fill="#d8d4c9"/></g></g></g><g fill="#8f8b81"><circle cx="174.271" cy="376.884" r="15.09"/><circle cx="232.525" cy="376.884" r="15.09"/><circle cx="290.778" cy="376.884" r="15.09"/><circle cx="349.031" cy="376.884" r="15.09"/></g></g><g><g><g><g><path d="m354.289 254.172h-185.276c-7.161 0-12.966-5.805-12.966-12.966 0-7.161 5.805-12.966 12.966-12.966h185.276c7.161 0 12.966 5.805 12.966 12.966.001 7.161-5.804 12.966-12.966 12.966z" fill="#8f8b81"/></g><g><path d="m297.419 228.239h-99.249c-7.161 0-12.966 5.805-12.966 12.966 0 7.161 5.805 12.966 12.966 12.966h99.249c7.161 0 12.966-5.805 12.966-12.966 0-7.161-5.805-12.966-12.966-12.966z" fill="#b5b1a4"/><path d="m258.255 228.239h-32.462c-7.161 0-12.966 5.805-12.966 12.966 0 7.161 5.805 12.966 12.966 12.966h32.462c7.161 0 12.966-5.805 12.966-12.966 0-7.161-5.805-12.966-12.966-12.966z" fill="#d8d4c9"/></g></g></g><g fill="#8f8b81"><circle cx="174.271" cy="282.817" r="15.09"/><circle cx="232.525" cy="282.817" r="15.09"/><circle cx="290.778" cy="282.817" r="15.09"/><circle cx="349.031" cy="282.817" r="15.09"/></g></g><g><g><g><g><path d="m354.289 160.105h-185.276c-7.161 0-12.966-5.805-12.966-12.966 0-7.161 5.805-12.966 12.966-12.966h185.276c7.161 0 12.966 5.805 12.966 12.966.001 7.16-5.804 12.966-12.966 12.966z" fill="#8f8b81"/></g><g><path d="m297.419 134.172h-99.249c-7.161 0-12.966 5.805-12.966 12.966 0 7.161 5.805 12.966 12.966 12.966h99.249c7.161 0 12.966-5.805 12.966-12.966 0-7.161-5.805-12.966-12.966-12.966z" fill="#b5b1a4"/><path d="m258.255 134.172h-32.462c-7.161 0-12.966 5.805-12.966 12.966 0 7.161 5.805 12.966 12.966 12.966h32.462c7.161 0 12.966-5.805 12.966-12.966 0-7.161-5.805-12.966-12.966-12.966z" fill="#d8d4c9"/></g></g></g><g fill="#8f8b81"><circle cx="174.271" cy="188.749" r="15.09"/><circle cx="232.525" cy="188.749" r="15.09"/><circle cx="290.778" cy="188.749" r="15.09"/><circle cx="349.031" cy="188.749" r="15.09"/></g></g></g></g></svg>